<?xml version="1.0" standalone="no"?>
<!DOCTYPE svg PUBLIC "-//W3C//DTD SVG 1.1//EN"
  "http://www.w3.org/Graphics/SVG/1.1/DTD/svg11.dtd">
<svg version="1.1" xmlns="http://www.w3.org/2000/svg" xmlns:xlink="http://www.w3.org/1999/xlink" width="1280" height="720" viewBox="-1040.8888888888887 -32 1889.7777777777776 1063" id="ccdiagram"><filter id="grayscale"><feColorMatrix type="matrix" values="0.3333 0.3333 0.3333 0 0 0.3333 0.3333 0.3333 0 0 0.3333 0.3333 0.3333 0 0 0 0 0 1 0"></feColorMatrix></filter><defs><style type="text/css">@import url('https://fonts.googleapis.com/css?family=Open+Sans:400,700|Inconsolata:400');</style></defs><g><g style="pointer-events: none;"><g><pattern id="gridPatternMinor" x="0" y="37" width="128" height="74" patternUnits="userSpaceOnUse"><path d="M 0 0 L 128 74" stroke="#eee" stroke-width="1"></path><path d="M 128 0 L 0 74" stroke="#eee" stroke-width="1"></path></pattern><polygon points="0 0, 768 444, -192 999, -960 555" fill="url(#gridPatternMinor)"></polygon></g><polygon points="-960 555, -960 565, -192 1009, -192 999" stroke-linejoin="round" stroke="#54626f" stroke-width="1" fill="#f9f9f9"></polygon><polygon points="-192 1009, 768 454, 768 444, -192 999" stroke-linejoin="round" stroke="#54626f" stroke-width="1" fill="#e2e2e2"></polygon></g><g pointer-events="auto"><g opacity="1"><g><g><polygon points="-416 352, 160 685, 160 722, -160 907, -224 907, -800 574, -800 537, -480 352" fill="#ffffff" stroke-width="2" stroke="#818181"></polygon><polygon points="-448 370, 128 703, -192 888, -768 555" fill="rgba(0, 0, 0, 0)" stroke-width="0" stroke="#818181"></polygon></g></g></g><g opacity="1"><g id="068db73a-9baa-4e19-8f86-b0e6f2d0d3ca"><svg x="-447" y="407" overflow="visible"><g fill="#e6e7e8"><polygon points="0 0, 513 297, 255 446, -258 149" stroke="#e6e7e8" stroke-width="40"></polygon></g></svg></g></g><g opacity="1"><g><g><polygon points="32 93, 608 426, 608 463, 352 611, 288 611, -288 278, -288 241, -32 93" fill="#ffffff" stroke-width="2" stroke="#818181"></polygon><polygon points="0 111, 576 444, 320 592, -256 259" fill="rgba(0, 0, 0, 0)" stroke-width="0" stroke="#818181"></polygon></g></g></g><g opacity="1"><g id="af0dce61-2177-451d-ba5f-b4cabce137d0"><svg x="-1" y="148" overflow="visible"><g fill="#e6e7e8"><polygon points="0 0, 513 297, 319 409, -194 112" stroke="#e6e7e8" stroke-width="40"></polygon></g></svg></g></g></g><g style="pointer-events: none;"><g><pattern id="gridPatternMajor" x="0" y="37" width="128" height="74" patternUnits="userSpaceOnUse"><path d="M 64 0 L 128 37 64 74 0 37 z" stroke="#54626f" stroke-width="1" fill="none"></path></pattern><polygon points="0 0, 768 444, -192 999, -960 555" fill="url(#gridPatternMajor)"></polygon></g></g><g pointer-events="auto"></g><g></g><g pointer-events="auto"></g><g></g><g pointer-events="auto"></g><g pointer-events="none"></g><g pointer-events="auto"><g><g cursor="cell"><line x1="-160" y1="648" x2="-10" y2="561" stroke="red" stroke-width="8" opacity="0"></line><line x1="-160" y1="648" x2="-10" y2="561" stroke="#000000" stroke-width="2" stroke-linecap="round"></line><polygon points="0 555, -26 560, -12 562, -9 570, 0 555" stroke-linejoin="round" fill="#000000" stroke="#000000" stroke-width="1"></polygon></g></g><g><g cursor="cell"><line x1="288" y1="389" x2="74" y2="512" stroke="red" stroke-width="8" opacity="0"></line><line x1="288" y1="389" x2="74" y2="512" stroke="#000000" stroke-width="2" stroke-linecap="round"></line><polygon points="64 518, 90 513, 76 511, 73 503, 64 518" stroke-linejoin="round" fill="#000000" stroke="#000000" stroke-width="1"></polygon></g></g><g><g cursor="cell"><line x1="-416" y1="500" x2="-266" y2="413" stroke="red" stroke-width="8" opacity="0"></line><line x1="-416" y1="500" x2="-266" y2="413" stroke="#000000" stroke-width="2" stroke-linecap="round"></line><polygon points="-256 407, -282 412, -268 414, -265 422, -256 407" stroke-linejoin="round" fill="#000000" stroke="#000000" stroke-width="1"></polygon></g></g><g><g cursor="cell"><line x1="32" y1="241" x2="-182" y2="364" stroke="red" stroke-width="8" opacity="0"></line><line x1="32" y1="241" x2="-182" y2="364" stroke="#000000" stroke-width="2" stroke-linecap="round"></line><polygon points="-192 370, -166 365, -180 363, -183 355, -192 370" stroke-linejoin="round" fill="#000000" stroke="#000000" stroke-width="1"></polygon></g></g><g><g cursor="cell"><line x1="-288" y1="648" x2="-438" y2="561" stroke="red" stroke-width="8" opacity="0"></line><line x1="-288" y1="648" x2="-438" y2="561" stroke="#000000" stroke-width="2" stroke-linecap="round"></line><polygon points="-448 555, -439 570, -436 562, -422 560, -448 555" stroke-linejoin="round" fill="#000000" stroke="#000000" stroke-width="1"></polygon></g></g><g><g cursor="cell"><line x1="96" y1="241" x2="246" y2="327" stroke="red" stroke-width="8" opacity="0"></line><line x1="96" y1="241" x2="246" y2="327" stroke="#000000" stroke-width="2" stroke-linecap="round"></line><polygon points="256 333, 247 318, 244 326, 230 328, 256 333" stroke-linejoin="round" fill="#000000" stroke="#000000" stroke-width="1"></polygon></g></g></g><g pointer-events="auto"><g opacity="1"><g id="091c2865-6081-4b00-be3e-c91fb43c19b4" transform="translate(0 0)"><g><polygon points="64 148, 128 185, 64 222, 0 185" fill="#fff"></polygon><polygon points="0 222, 64 259, 64 222, 0 185" fill="#e6e6e6" stroke="#999"></polygon><polygon points="64 259, 128 222, 128 185, 64 222" fill="#ccc" stroke="#999"></polygon><polygon points="64 148, 0 185, 0 222, 64 259, 128 222, 128 185" fill="none" stroke="#000000" stroke-width="2"></polygon></g></g></g><g opacity="1"><g id="9504ddfc-ee21-4af7-ad44-00b37e8aa5ed" transform="translate(0 0)"><g><polygon points="320 296, 384 333, 320 370, 256 333" fill="#fff"></polygon><polygon points="256 370, 320 407, 320 370, 256 333" fill="#e6e6e6" stroke="#999"></polygon><polygon points="320 407, 384 370, 384 333, 320 370" fill="#ccc" stroke="#999"></polygon><polygon points="320 296, 256 333, 256 370, 320 407, 384 370, 384 333" fill="none" stroke="#000000" stroke-width="2"></polygon></g></g></g><g opacity="1"><g id="d804daf4-a08d-4fa2-9a21-5bd1705c5ee1" transform="translate(0 0)"><g><polygon points="-480 463, -416 500, -480 537, -544 500" fill="#fff"></polygon><polygon points="-544 537, -480 574, -480 537, -544 500" fill="#e6e6e6" stroke="#999"></polygon><polygon points="-480 574, -416 537, -416 500, -480 537" fill="#ccc" stroke="#999"></polygon><polygon points="-480 463, -544 500, -544 537, -480 574, -416 537, -416 500" fill="none" stroke="#000000" stroke-width="2"></polygon></g></g></g><g opacity="1"><g id="17833d09-b576-4772-8aad-e159c4727f5d" transform="translate(0 0)"><g><polygon points="-224 611, -160 648, -224 685, -288 648" fill="#fff"></polygon><polygon points="-288 685, -224 722, -224 685, -288 648" fill="#e6e6e6" stroke="#999"></polygon><polygon points="-224 722, -160 685, -160 648, -224 685" fill="#ccc" stroke="#999"></polygon><polygon points="-224 611, -288 648, -288 685, -224 722, -160 685, -160 648" fill="none" stroke="#000000" stroke-width="2"></polygon></g></g></g></g><g pointer-events="auto"></g><g pointer-events="auto"><g opacity="1"><g id="a5f75f9e-6327-4994-b950-62245098f7e7" transform="translate(0 0)"><svg x="-480" y="500" overflow="visible"><g transform="scale(0.9659813662799094) matrix(0.707 0.409 -0.707 0.409 0 0)"><circle cx="0" cy="0" fill="transparent" r="37.5"></circle><svg width="75" height="75" x="-37.5" y="-37.5" style=""><svg xmlns="http://www.w3.org/2000/svg" viewBox="0 0 75 75"><defs><linearGradient id="RedGradient" x1="-2436.76" y1="961.37" x2="-2436.76" y2="1111.37" gradientTransform="rotate(-135 -1406.5 24.5)" gradientUnits="userSpaceOnUse"><stop offset="0" stop-color="#bd0816"></stop><stop offset="1" stop-color="#ff5252"></stop></linearGradient></defs><g id="Reference"><path id="Red_Gradient" data-name="Red Gradient" fill="url(#RedGradient)" d="M0 0h75v75H0z"></path><g id="Icon_Test" data-name="Icon Test" fill="#fff"><path d="M24.5 62a1 1 0 0 1-.75-.34l-3.5-4A1 1 0 0 1 20 57v-2.58l-2.71-2.71a1 1 0 0 1 0-1.42l2.71-2.7v-1.17l-2.71-2.71a1 1 0 0 1 0-1.42l2.71-2.7v-2.42a12.45 12.45 0 0 1-8-11.82 12.5 12.5 0 0 1 25 .15 12.43 12.43 0 0 1-8 11.66V58a1 1 0 0 1-.35.76l-3.5 3a1 1 0 0 1-.65.24zM22 56.62l2.6 3 2.4-2.08V36.45a1 1 0 0 1 .7-1 10.49 10.49 0 1 0-6.43 0 1 1 0 0 1 .73 1V40a1 1 0 0 1-.29.71L19.42 43l2.29 2.29A1 1 0 0 1 22 46v2a1 1 0 0 1-.29.7L19.42 51l2.29 2.29A1 1 0 0 1 22 54zm2.5-30.12A4.5 4.5 0 1 1 29 22a4.51 4.51 0 0 1-4.5 4.5zm0-7A2.5 2.5 0 1 0 27 22a2.5 2.5 0 0 0-2.5-2.5zM61.09 55H31v-2h30V31H39v-2h22.09A1.9 1.9 0 0 1 63 30.87v22.26A1.9 1.9 0 0 1 61.09 55z"></path><path d="M34.5 45.5a4 4 0 1 1 4-4 4 4 0 0 1-4 4zm0-6a2 2 0 1 0 2 2 2 2 0 0 0-2-2zM44.5 45.5a4 4 0 1 1 4-4 4 4 0 0 1-4 4zm0-6a2 2 0 1 0 2 2 2 2 0 0 0-2-2zM31 48h7v2h-7zM41 48h7v2h-7zM51 48h7v2h-7z"></path></g></g></svg></svg></g></svg></g></g><g opacity="1"><g id="5be5e60f-da11-4c80-a59f-5fed798cba5c" transform="translate(0 0)"><svg x="-224" y="648" overflow="visible"><g transform="scale(1.2074767078498865) matrix(0.707 0.409 -0.707 0.409 0 0)"><circle cx="0" cy="0" fill="transparent" r="25"></circle><svg width="50" height="50" x="-25" y="-25" style=""><svg xmlns="http://www.w3.org/2000/svg" viewBox="0 0 50 50"><g id="Working" fill="#d6242d"><path d="M41 48.5H9a2.81 2.81 0 0 1-2.8-2.81V4.31A2.81 2.81 0 0 1 9 1.5h32a2.81 2.81 0 0 1 2.8 2.81v41.38A2.81 2.81 0 0 1 41 48.5zM9 3.5a.8.8 0 0 0-.8.81v41.38a.8.8 0 0 0 .8.81h32a.8.8 0 0 0 .8-.81V4.31a.8.8 0 0 0-.8-.81z"></path><path transform="rotate(-45 16.096 37.653)" d="M15.09 31.69h2v11.93h-2z"></path><path transform="rotate(-45 16.096 37.653)" d="M10.13 36.66h11.93v2H10.13z"></path><path d="M14.69 15.69a1 1 0 0 1-.71-.3l-3.75-3.75 1.41-1.41 3 3 6.79-6.79 1.41 1.41-7.5 7.5a1 1 0 0 1-.65.34zM14.69 27.88a1 1 0 0 1-.71-.3l-3.75-3.75 1.41-1.41 3 3 6.79-6.79 1.41 1.41-7.5 7.5a1 1 0 0 1-.65.34z"></path></g></svg></svg></g></svg></g></g><g opacity="1"><g id="8ee7a1ab-4e39-4a8b-8663-96d92b506f78" transform="translate(0 0)"><svg x="320" y="333" overflow="visible"><g transform="scale(1.2074767078498865) matrix(0.707 0.409 -0.707 0.409 0 0)"><circle cx="0" cy="0" fill="transparent" r="25"></circle><svg width="50" height="50" x="-25" y="-25" style=""><svg xmlns="http://www.w3.org/2000/svg" viewBox="0 0 50 50"><g id="Working" fill="#d6242d"><path d="M7.94 31.62v-.83a19.8 19.8 0 0 1 39.55-1.35l-2 .13a17.8 17.8 0 0 0-35.57 1.22v.75z"></path><path d="M8.73 32.22v-1.31a16.49 16.49 0 0 1 6.55-13.07l.1-.07a18.34 18.34 0 0 1 9.3-2.51 17.61 17.61 0 0 1 17.05 12.43l-1.92.54a15.6 15.6 0 0 0-15.16-11 16.33 16.33 0 0 0-8.23 2.2 14.48 14.48 0 0 0-5.72 11.48v1.26zM10.05 37.83l-.27-2a11.65 11.65 0 0 0 5-1.67c3.31-2.4 10.31-3.26 14.09-3a23.81 23.81 0 0 1 7.06 2.22A17.59 17.59 0 0 0 39 34.57a29 29 0 0 0 5-.28h.17c.59-.06 1.17-.12 1.73-.16h.56v-3.61h-.21l-1.8.17-1.36.12-.15-2 1.34-.11 1.77-.17.46-.05a1.73 1.73 0 0 1 2 1.72v4.09A1.74 1.74 0 0 1 46.88 36h-.14l-.62.05-1.7.16h-.18a28.57 28.57 0 0 1-5.54.27 16.54 16.54 0 0 1-3.58-1.29 22.25 22.25 0 0 0-6.42-1.99c-3.4-.26-9.89.51-12.76 2.6a13.61 13.61 0 0 1-5.89 2.03zM46.74 34z"></path><path d="M37.37 30.78c-.57-.17-1.2-.41-1.93-.69a18.5 18.5 0 0 0-7.73-1.65c-4.86.29-7.22.57-9 1.08l-.56-1.92c2-.56 4.42-.86 9.45-1.15a20.24 20.24 0 0 1 8.56 1.77c.68.27 1.28.49 1.76.63zM7.4 38c-2.14 0-4.25-.39-5.34-1.48A1.7 1.7 0 0 1 1.53 35c.24-1.27 1.87-2 4.14-3 1-.41 1.93-.84 2.79-1.31l1 1.75c-.94.52-2 1-2.95 1.4a18.94 18.94 0 0 0-2.82 1.4c.9.63 3.16 1 6.13.59l.27 2A20.68 20.68 0 0 1 7.4 38z"></path><path d="M42.35 32.56h-4a1.71 1.71 0 0 1-1.7-1.71v-2.19a1.7 1.7 0 0 1 1.7-1.7h4a1.7 1.7 0 0 1 1.7 1.7v2.19a1.71 1.71 0 0 1-1.7 1.71zm-3.7-2h3.4V29h-3.4zM16.49 35.28a13 13 0 0 1-8.22-3l1.33-1.45a11 11 0 0 0 7 2.45z"></path></g></svg></svg></g></svg></g></g><g opacity="1"><g id="496aadd4-01ce-4d7a-9a9a-777b3c8104f0" transform="translate(0 0)"><svg x="-240" y="398" overflow="visible"><g transform="scale(0.8944271909999159) matrix(0.707 0.409 -0.707 0.409 0 0)"><circle cx="0" cy="0" fill="#000000" r="23"></circle><svg width="27" height="32" x="-13.5" y="-16" style="fill: rgb(255, 87, 34);"><svg xmlns="http://www.w3.org/2000/svg" width="27" height="32" viewBox="0 0 27 32"><path d="M18.286 16c0 2.518-2.054 4.571-4.571 4.571S9.144 18.517 9.144 16s2.054-4.571 4.571-4.571 4.571 2.054 4.571 4.571zm2.285 0c0-3.786-3.071-6.857-6.857-6.857S6.857 12.214 6.857 16s3.071 6.857 6.857 6.857 6.857-3.071 6.857-6.857zm2.286 0c0 5.054-4.089 9.143-9.143 9.143S4.571 21.054 4.571 16s4.089-9.143 9.143-9.143 9.143 4.089 9.143 9.143zm2.286 0c0-6.304-5.125-11.429-11.429-11.429S2.285 9.696 2.285 16 7.41 27.429 13.714 27.429 25.143 22.304 25.143 16zm2.286 0c0 7.571-6.143 13.714-13.714 13.714S.001 23.571.001 16 6.144 2.286 13.715 2.286 27.429 8.429 27.429 16z"></path></svg></svg></g></svg></g></g><g opacity="1"><g id="b3542a66-5ad6-4ba7-b458-c4a961aa6a4c" transform="translate(0 0)"><svg x="16" y="546" overflow="visible"><g transform="scale(0.8944271909999159) matrix(0.707 0.409 -0.707 0.409 0 0)"><circle cx="0" cy="0" fill="#000000" r="23"></circle><svg width="27" height="32" x="-13.5" y="-16" style="fill: rgb(255, 87, 34);"><svg xmlns="http://www.w3.org/2000/svg" width="27" height="32" viewBox="0 0 27 32"><path d="M18.286 16c0 2.518-2.054 4.571-4.571 4.571S9.144 18.517 9.144 16s2.054-4.571 4.571-4.571 4.571 2.054 4.571 4.571zm2.285 0c0-3.786-3.071-6.857-6.857-6.857S6.857 12.214 6.857 16s3.071 6.857 6.857 6.857 6.857-3.071 6.857-6.857zm2.286 0c0 5.054-4.089 9.143-9.143 9.143S4.571 21.054 4.571 16s4.089-9.143 9.143-9.143 9.143 4.089 9.143 9.143zm2.286 0c0-6.304-5.125-11.429-11.429-11.429S2.285 9.696 2.285 16 7.41 27.429 13.714 27.429 25.143 22.304 25.143 16zm2.286 0c0 7.571-6.143 13.714-13.714 13.714S.001 23.571.001 16 6.144 2.286 13.715 2.286 27.429 8.429 27.429 16z"></path></svg></svg></g></svg></g></g><g opacity="1"><g id="b7fdeb8e-e696-45c9-a0e1-6f69b810bae0" transform="translate(0 0)"><svg x="64" y="185" overflow="visible"><g transform="scale(1.7469281074217107) matrix(0.707 0.409 -0.707 0.409 0 0)"><circle cx="0" cy="0" fill="#000000" r="23"></circle><svg width="32" height="32" x="-16" y="-16" style="fill: rgb(255, 255, 255);"><svg xmlns="http://www.w3.org/2000/svg" width="32" height="32" viewBox="0 0 32 32"><path d="M2.286 25.143h18.286v-2.286H2.286v2.286zm0-9.143h18.286v-2.286H2.286V16zm28 8a1.715 1.715 0 1 0-3.43.002 1.715 1.715 0 0 0 3.43-.002zm-28-17.143h18.286V4.571H2.286v2.286zm28 8a1.715 1.715 0 1 0-3.43.002 1.715 1.715 0 0 0 3.43-.002zm0-9.143a1.715 1.715 0 1 0-3.43.002 1.715 1.715 0 0 0 3.43-.002zM32 20.571v6.857H0v-6.857h32zm0-9.142v6.857H0v-6.857h32zm0-9.143v6.857H0V2.286h32z"></path></svg></svg></g></svg></g></g></g><g pointer-events="auto"><g opacity="1"><g id="e9799400-283e-49c0-b5a8-b7eb63edcbbf" transform="translate(0 0)"><svg x="-252" y="820" overflow="visible"><text stroke="#ffffff" stroke-width="0" font-family="Open Sans" y="59.3" font-size="45pt" fill="#4286c5" font-weight="bold" transform="matrix(0.707 -0.409 0.707 0.409 0 0)" xml:space="preserve"><tspan x="8" dy="0">Stack A</tspan></text><text font-family="Open Sans" y="59.3" font-size="45pt" fill="#4286c5" font-weight="bold" transform="matrix(0.707 -0.409 0.707 0.409 0 0)" xml:space="preserve"><tspan x="8" dy="0">Stack A</tspan></text></svg></g></g><g opacity="1"><g id="6848408e-f628-47a0-a980-a8c83ca9d597" transform="translate(0 0)"><svg x="259" y="524" overflow="visible"><text stroke="#ffffff" stroke-width="0" font-family="Open Sans" y="59.3" font-size="45pt" fill="#4286c5" font-weight="bold" transform="matrix(0.707 -0.409 0.707 0.409 0 0)" xml:space="preserve"><tspan x="8" dy="0">Stack B</tspan></text><text font-family="Open Sans" y="59.3" font-size="45pt" fill="#4286c5" font-weight="bold" transform="matrix(0.707 -0.409 0.707 0.409 0 0)" xml:space="preserve"><tspan x="8" dy="0">Stack B</tspan></text></svg></g></g><g opacity="1"><g id="62f7c0f7-9ce8-479c-9958-91983de49a0a" transform="translate(0 0)"><svg x="-240" y="342" overflow="visible"><text stroke="#ffffff" stroke-width="0" font-family="Open Sans" y="30.799999999999997" font-size="20pt" fill="#000000" font-weight="bold" transform="matrix(0.707 0.409 -0.707 0.409 0 0)" xml:space="preserve"><tspan x="8" dy="0">alias/MyKey</tspan></text><text font-family="Open Sans" y="30.799999999999997" font-size="20pt" fill="#000000" font-weight="bold" transform="matrix(0.707 0.409 -0.707 0.409 0 0)" xml:space="preserve"><tspan x="8" dy="0">alias/MyKey</tspan></text></svg></g></g><g opacity="1"><g id="772dfcf5-8700-46ad-ae31-06dc9d6ec642" transform="translate(0 0)"><svg x="-32" y="463" overflow="visible"><text stroke="#ffffff" stroke-width="0" font-family="Open Sans" y="30.799999999999997" font-size="20pt" fill="#000000" font-weight="bold" transform="matrix(0.707 0.409 -0.707 0.409 0 0)" xml:space="preserve"><tspan x="8" dy="0">allow-crypto-MyKey</tspan></text><text font-family="Open Sans" y="30.799999999999997" font-size="20pt" fill="#000000" font-weight="bold" transform="matrix(0.707 0.409 -0.707 0.409 0 0)" xml:space="preserve"><tspan x="8" dy="0">allow-crypto-MyKey</tspan></text></svg></g></g><g opacity="1"><g id="97ab5aff-8500-45c0-a228-ae698d09f7df" transform="translate(0 0)"><svg x="-544" y="537" overflow="visible"><text stroke="#ffffff" stroke-width="0" font-family="Open Sans" y="30.799999999999997" font-size="20pt" fill="#000000" font-weight="bold" transform="matrix(0.707 0.409 -0.707 0.409 0 0)" xml:space="preserve"><tspan x="8" dy="0">MyKey</tspan></text><text font-family="Open Sans" y="30.799999999999997" font-size="20pt" fill="#000000" font-weight="bold" transform="matrix(0.707 0.409 -0.707 0.409 0 0)" xml:space="preserve"><tspan x="8" dy="0">MyKey</tspan></text></svg></g></g><g opacity="1"><g id="362308ec-5b13-4efb-8a28-5afb7ad04efd" transform="translate(0 0)"><svg x="128" y="481" overflow="visible"><text stroke="#ffffff" stroke-width="0" font-family="Open Sans" y="26.24" font-size="16pt" fill="#000000" font-weight="bold" transform="matrix(0.707 -0.409 0.707 0.409 0 0)" xml:space="preserve"><tspan x="8" dy="0">addManagedPolicy</tspan></text><text font-family="Open Sans" y="26.24" font-size="16pt" fill="#000000" font-weight="bold" transform="matrix(0.707 -0.409 0.707 0.409 0 0)" xml:space="preserve"><tspan x="8" dy="0">addManagedPolicy</tspan></text></svg></g></g><g opacity="1"><g id="e759dc47-685d-4330-83f2-7d3ad6e1dcde" transform="translate(0 0)"><svg x="-400" y="583" overflow="visible"><text stroke="#ffffff" stroke-width="0" font-family="Open Sans" y="26.24" font-size="16pt" fill="#000000" font-weight="bold" transform="matrix(0.707 0.409 -0.707 0.409 0 0)" xml:space="preserve"><tspan x="8" dy="0">kms:Decrypt</tspan><tspan x="8" dy="1.1em">kms:DescribeKey</tspan><tspan x="8" dy="1.1em">kms:Encrypt</tspan><tspan x="8" dy="1.1em">kms:GenerateDataKey*</tspan><tspan x="8" dy="1.1em">kms:ReEncrypt*</tspan></text><text font-family="Open Sans" y="26.24" font-size="16pt" fill="#000000" font-weight="bold" transform="matrix(0.707 0.409 -0.707 0.409 0 0)" xml:space="preserve"><tspan x="8" dy="0">kms:Decrypt</tspan><tspan x="8" dy="1.1em">kms:DescribeKey</tspan><tspan x="8" dy="1.1em">kms:Encrypt</tspan><tspan x="8" dy="1.1em">kms:GenerateDataKey*</tspan><tspan x="8" dy="1.1em">kms:ReEncrypt*</tspan></text></svg></g></g></g><g></g></g></svg>